<?xml version="1.0" standalone="no"?>
<!DOCTYPE svg PUBLIC "-//W3C//DTD SVG 20010904//EN"
 "http://www.w3.org/TR/2001/REC-SVG-20010904/DTD/svg10.dtd">
<svg version="1.0" xmlns="http://www.w3.org/2000/svg"
 width="500.000000pt" height="500.000000pt" viewBox="0 0 500.000000 500.000000"
 preserveAspectRatio="xMidYMid meet">
<metadata>
Created by potrace 1.14, written by Peter Selinger 2001-2017
</metadata>
<g transform="translate(0.000000,500.000000) scale(0.100000,-0.100000)"
fill="#000000" stroke="none">
<path d="M2441 4719 c-24 -4 -66 -21 -95 -37 -477 -270 -1709 -991 -1734
-1015 -18 -17 -45 -57 -60 -87 l-27 -55 0 -1035 0 -1035 26 -56 c14 -30 42
-71 62 -90 32 -32 1556 -919 1737 -1012 88 -45 161 -56 230 -34 25 7 433 236
905 508 634 365 871 506 906 540 30 30 53 65 68 103 l21 58 -2 1031 -3 1032
-23 47 c-13 25 -40 63 -62 84 -38 37 -1630 966 -1755 1024 -69 32 -131 42
-194 29z m459 -1054 c602 -94 1037 -362 1216 -751 50 -108 75 -212 81 -344 12
-268 -83 -497 -296 -711 -235 -235 -596 -399 -1021 -464 -147 -23 -458 -31
-616 -16 -645 60 -1162 346 -1365 756 -72 145 -91 230 -92 395 0 162 27 279
93 412 194 385 668 661 1250 727 52 6 109 13 125 15 75 10 525 -3 625 -19z"/>
<path d="M2945 3626 c560 -117 919 -345 1085 -689 65 -137 84 -221 85 -377 0
-143 -11 -203 -59 -321 -122 -301 -453 -562 -876 -689 -58 -17 -175 -55 -260
-83 -137 -46 -150 -52 -116 -55 52 -4 204 22 346 59 551 146 937 487 1016 897
17 87 18 234 3 318 -83 470 -534 832 -1178 944 -153 27 -182 24 -46 -4z"/>
<path d="M2660 3521 c0 -11 -5 -21 -11 -23 -7 -2 6 -27 29 -58 99 -130 166
-324 207 -598 l7 -44 52 7 c374 47 600 138 667 267 24 48 24 81 -2 135 -51
106 -238 204 -523 274 -128 31 -309 59 -381 59 -38 0 -45 -3 -45 -19z"/>
<path d="M2152 3464 c-400 -58 -707 -219 -677 -355 24 -108 229 -199 552 -243
38 -6 43 -4 47 16 3 13 12 61 21 108 32 167 99 334 176 438 l40 52 -33 -1
c-18 -1 -75 -7 -126 -15z"/>
<path d="M2470 3197 c-61 -31 -127 -169 -145 -304 l-7 -53 175 0 174 0 -5 -25
c-4 -24 -2 -25 39 -25 l43 0 -29 30 c-19 20 -30 45 -36 81 -21 131 -78 257
-132 290 -37 22 -44 23 -77 6z"/>
<path d="M3800 3043 c-1 -95 -107 -211 -267 -296 -127 -67 -395 -143 -569
-162 l-61 -7 -6 -139 c-14 -299 -78 -574 -172 -735 -13 -23 -25 -58 -27 -79
-2 -34 -6 -39 -48 -57 -64 -29 -177 -35 -221 -13 -50 25 -105 82 -147 150
l-37 60 -5 -35 c-5 -34 -5 -33 -42 45 -77 169 -118 349 -138 609 l-11 139 25
26 26 27 -117 18 c-313 49 -556 148 -690 281 -51 51 -64 72 -80 125 l-19 64
-31 -50 c-50 -78 -89 -162 -119 -259 -25 -80 -28 -105 -28 -225 1 -124 3 -143
32 -230 35 -105 97 -213 173 -302 63 -72 82 -75 78 -14 l-4 44 64 -61 c70 -64
210 -161 305 -209 57 -29 253 -108 267 -108 4 0 20 -5 36 -12 15 -6 35 -11 43
-10 10 1 11 0 3 -4 -15 -6 -16 -23 -5 -41 8 -13 113 -36 241 -52 90 -12 391
-13 481 -3 50 6 55 9 58 34 3 23 9 28 40 34 187 33 388 98 538 174 64 33 121
60 126 60 6 0 8 -15 6 -34 l-4 -34 41 26 c112 70 257 207 324 305 150 221 176
499 71 759 -25 61 -115 218 -126 218 -2 0 -4 -12 -4 -27z"/>
<path d="M2281 2531 c14 -19 23 -54 29 -119 22 -207 73 -366 136 -422 56 -49
97 -38 145 38 53 83 109 311 109 441 0 22 4 43 10 46 5 3 14 14 20 24 9 18 -1
19 -230 19 l-239 0 20 -27z"/>
<path d="M833 2480 c0 -25 2 -35 4 -22 2 12 2 32 0 45 -2 12 -4 2 -4 -23z"/>
<path d="M845 2371 c8 -59 40 -151 82 -236 135 -270 446 -508 818 -628 159
-51 196 -55 100 -12 -44 20 -118 49 -165 66 -214 75 -423 201 -561 339 -135
135 -217 273 -259 437 -13 48 -18 61 -15 34z"/>
</g>
</svg>
